<svg width="224" height="140" viewBox="0 0 224 140" fill="none" xmlns="http://www.w3.org/2000/svg">
<path d="M59.308 120.472H46.2134V126.111H59.308V120.472Z" fill="#392566"/>
<path d="M56.1852 124.302H49.3369V129.941H56.1852V124.302Z" fill="#392566"/>
<path d="M54.9755 128.855H50.546V134.494H54.9755V128.855Z" fill="#392566"/>
<path d="M63.9052 139.055H41.6162C41.6162 136.536 43.6583 134.494 46.1772 134.494H59.3443C61.8634 134.494 63.9052 136.536 63.9052 139.055Z" fill="#392566"/>
<path d="M219.871 101.093C219.871 101.29 219.866 101.492 219.86 101.689C219.855 101.853 219.849 102.012 219.838 102.176C219.806 102.75 219.745 103.313 219.647 103.871C219.63 103.992 219.609 104.117 219.587 104.238C219.559 104.391 219.527 104.544 219.494 104.697C219.434 104.987 219.362 105.277 219.28 105.555C219.269 105.61 219.253 105.659 219.237 105.709C219.193 105.878 219.138 106.042 219.089 106.206C218.903 106.786 218.679 107.355 218.427 107.907C218.356 108.049 218.29 108.197 218.219 108.339C218.203 108.372 218.186 108.405 218.17 108.438C218.093 108.591 218.017 108.738 217.935 108.886C217.842 109.05 217.749 109.22 217.65 109.384C217.454 109.718 217.246 110.045 217.016 110.368C216.907 110.527 216.792 110.691 216.671 110.849C216.556 111.003 216.431 111.161 216.305 111.32C216.185 111.473 216.053 111.626 215.922 111.779C215.917 111.79 215.906 111.801 215.9 111.806C215.774 111.954 215.649 112.096 215.518 112.233C215.25 112.534 214.954 112.829 214.653 113.119C214.517 113.25 214.374 113.381 214.227 113.513C214.216 113.524 214.2 113.535 214.189 113.546C214.035 113.688 213.872 113.83 213.708 113.967C213.549 114.103 213.379 114.24 213.21 114.377C213.035 114.514 212.865 114.65 212.685 114.782C212.51 114.918 212.329 115.05 212.143 115.176C211.963 115.307 211.777 115.433 211.585 115.558C211.082 115.892 210.563 116.215 210.016 116.527C209.857 116.62 209.693 116.713 209.529 116.8C209.343 116.904 209.157 117.002 208.966 117.106C208.654 117.265 208.331 117.423 208.009 117.582C207.834 117.664 207.653 117.746 207.478 117.828C207.298 117.91 207.117 117.992 206.931 118.074C206.565 118.233 206.193 118.386 205.81 118.539C205.624 118.616 205.427 118.692 205.236 118.763C204.848 118.916 204.449 119.059 204.044 119.201C203.639 119.338 203.229 119.474 202.808 119.606C202.594 119.671 202.381 119.742 202.162 119.808C201.741 119.928 201.309 120.054 200.866 120.174C200.866 120.174 200.86 120.174 200.855 120.18C200.833 120.185 200.811 120.185 200.784 120.196C200.756 120.207 200.735 120.212 200.707 120.218C200.313 120.322 199.914 120.42 199.51 120.519C199.296 120.574 199.072 120.623 198.853 120.678C198.378 120.782 197.896 120.886 197.404 120.989C197.163 121.039 196.923 121.082 196.677 121.132C196.431 121.175 196.185 121.225 195.938 121.268C195.643 121.323 195.348 121.372 195.052 121.422C192.575 121.837 189.917 122.138 187.073 122.33C186.778 122.351 186.477 122.368 186.171 122.384C185.875 122.406 185.575 122.417 185.274 122.433C184.863 122.455 184.448 122.472 184.027 122.488C183.901 122.494 183.775 122.499 183.644 122.505C183.474 122.51 183.299 122.516 183.124 122.516C182.714 122.526 182.298 122.537 181.877 122.548C181.407 122.554 180.937 122.559 180.461 122.559C180.236 122.565 180.012 122.565 179.788 122.565H43.6842C43.0937 122.565 42.5085 122.549 41.934 122.516C41.3544 122.483 40.7911 122.428 40.2332 122.363C40.0253 122.341 39.8174 122.313 39.6095 122.281C39.2595 122.231 38.9094 122.177 38.565 122.111C38.3189 122.067 38.0781 122.024 37.8377 121.969C37.8048 121.963 37.7722 121.958 37.7447 121.947C37.564 121.914 37.3837 121.87 37.2086 121.827C37.0665 121.799 36.9243 121.761 36.7875 121.723C36.7055 121.706 36.6235 121.684 36.5414 121.663C36.3498 121.613 36.1638 121.559 35.9782 121.504C35.6554 121.411 35.3328 121.313 35.021 121.209C34.7968 121.132 34.5726 121.055 34.3538 120.973C34.02 120.859 33.6975 120.727 33.3747 120.596C33.1615 120.509 32.9536 120.421 32.7457 120.328C32.494 120.219 32.2482 120.104 32.0021 119.984C31.7779 119.874 31.5591 119.765 31.3405 119.656C30.5912 119.262 29.8636 118.841 29.1582 118.381C28.934 118.233 28.7042 118.086 28.48 117.927C27.5229 117.265 26.6039 116.538 25.7235 115.751C25.5813 115.625 25.4336 115.494 25.2914 115.357C25.0889 115.171 24.8922 114.979 24.6953 114.788C24.4927 114.591 24.3014 114.394 24.1101 114.197C23.9131 114 23.7216 113.798 23.5359 113.59C23.4047 113.448 23.2735 113.306 23.1529 113.163C23.0217 113.021 22.8903 112.874 22.77 112.726C22.6495 112.595 22.5349 112.458 22.4253 112.321C22.2447 112.108 22.0643 111.889 21.8949 111.67C21.884 111.665 21.884 111.659 21.884 111.654C21.7308 111.463 21.5777 111.277 21.4356 111.08C21.0473 110.577 20.6754 110.063 20.3144 109.532H20.309C20.1174 109.253 19.9261 108.969 19.7402 108.685C19.5924 108.455 19.4449 108.225 19.3025 107.995C18.701 107.044 18.1321 106.054 17.5904 105.031C16.256 102.51 15.0966 99.8028 14.1012 96.9589C13.9973 96.6746 13.899 96.39 13.806 96.1004C13.6967 95.7832 13.5927 95.466 13.4888 95.1432C13.4068 94.8862 13.3247 94.6238 13.2427 94.3558C13.1497 94.0659 13.0623 93.7706 12.9747 93.4753C12.8873 93.1801 12.7997 92.8845 12.7176 92.5893C12.6356 92.2884 12.5482 91.9931 12.4715 91.6922C12.2799 90.9978 12.0996 90.2977 11.9302 89.592C11.881 89.3841 11.8319 89.1818 11.7824 88.9739C11.6346 88.3505 11.4981 87.7269 11.3613 87.0981C11.2354 86.4966 11.1099 85.8895 10.9947 85.2824C10.7977 84.2598 10.6174 83.226 10.4533 82.1924C10.3328 81.4378 10.2235 80.683 10.1196 79.9281C9.42509 74.8418 9.10229 69.6844 9.10229 64.6967C9.10229 42.9844 12.9854 21.2721 21.1726 10.4432C22.9883 8.02579 25.0285 6.15534 27.2869 4.94142C43.8856 -3.96223 110.341 0.238025 152.77 9.06526C154.919 9.51363 157.014 9.97324 159.032 10.4435C162.27 11.1984 165.327 11.9802 168.154 12.7843C176.041 15.0267 182.193 17.4495 185.748 19.9543C201.439 30.9964 210.841 59.6216 215.806 79.9284C215.992 80.6939 216.173 81.4488 216.348 82.1927C216.599 83.2538 216.834 84.282 217.059 85.2827C217.086 85.403 217.114 85.5288 217.141 85.6491C217.223 86.021 217.305 86.3873 217.382 86.7483C217.409 86.8742 217.436 86.9944 217.464 87.1147C217.584 87.656 217.699 88.1867 217.808 88.7062C218.038 89.7945 218.251 90.8281 218.448 91.8071C218.514 92.1134 218.574 92.4196 218.629 92.7205C218.64 92.7696 218.651 92.8244 218.662 92.8736C218.771 93.4149 218.869 93.94 218.968 94.4378C219.017 94.7168 219.072 94.9848 219.121 95.2472C219.17 95.5042 219.219 95.7613 219.263 96.0074C219.356 96.5052 219.444 96.9755 219.526 97.4185C219.657 98.1349 219.755 98.8459 219.805 99.5404C219.805 99.5404 219.805 99.5458 219.805 99.5567C219.849 100.076 219.871 100.584 219.871 101.093Z" fill="#D1E0F3"/>
<path d="M4.04911 117.81C3.00544 117.81 2.15955 116.964 2.15955 115.92V102.377H5.93867V115.92C5.93867 116.964 5.09278 117.81 4.04911 117.81Z" fill="#392566"/>
<path d="M28.0738 105.033H0V109.532H28.0738V105.033Z" fill="#E7EAEA"/>
<path d="M4.859 107.282C4.859 106.835 4.4966 106.472 4.04907 106.472C3.60182 106.472 3.23914 106.835 3.23914 107.282C3.23914 107.729 3.60182 108.092 4.04907 108.092C4.49632 108.092 4.859 107.729 4.859 107.282Z" fill="#392566"/>
<path d="M219.871 101.093C219.871 101.29 219.866 101.492 219.86 101.689C219.855 101.853 219.849 102.012 219.838 102.176C219.806 102.75 219.745 103.313 219.647 103.871C219.63 103.992 219.609 104.117 219.587 104.238C219.559 104.391 219.527 104.544 219.494 104.697C219.434 104.987 219.362 105.277 219.28 105.556C219.27 105.61 219.253 105.659 219.237 105.709C219.193 105.878 219.138 106.042 219.089 106.206C218.903 106.786 218.679 107.355 218.427 107.907C218.356 108.049 218.29 108.197 218.219 108.339C218.203 108.372 218.186 108.405 218.17 108.438C218.094 108.591 218.017 108.738 217.935 108.886C217.842 109.05 217.749 109.22 217.65 109.384C217.454 109.718 217.246 110.045 217.016 110.368C216.907 110.527 216.792 110.691 216.671 110.849C216.557 111.003 216.431 111.161 216.305 111.32C216.185 111.473 216.053 111.626 215.922 111.779C215.917 111.79 215.906 111.801 215.9 111.806C215.774 111.954 215.649 112.096 215.518 112.233C215.25 112.534 214.954 112.829 214.653 113.119C214.517 113.25 214.374 113.381 214.227 113.513C214.216 113.524 214.2 113.535 214.189 113.546C214.035 113.688 213.872 113.83 213.708 113.967C213.549 114.103 213.379 114.24 213.21 114.377C213.035 114.514 212.865 114.65 212.685 114.782C212.51 114.918 212.329 115.05 212.143 115.176C211.963 115.307 211.777 115.433 211.585 115.558C211.082 115.892 210.563 116.215 210.016 116.527C209.857 116.62 209.693 116.713 209.529 116.8C209.343 116.904 209.157 117.002 208.966 117.106C208.654 117.265 208.331 117.423 208.009 117.582C207.834 117.664 207.653 117.746 207.478 117.828C207.298 117.91 207.117 117.992 206.931 118.074C206.565 118.233 206.193 118.386 205.81 118.539C205.624 118.616 205.427 118.692 205.236 118.763C204.848 118.916 204.449 119.059 204.044 119.201C203.639 119.338 203.229 119.474 202.808 119.606C202.594 119.671 202.381 119.742 202.162 119.808C201.741 119.928 201.309 120.054 200.866 120.174C200.866 120.174 200.86 120.174 200.855 120.18C200.833 120.185 200.811 120.185 200.784 120.196C200.762 120.201 200.735 120.207 200.713 120.212L200.707 120.218C200.313 120.322 199.914 120.42 199.51 120.519C199.296 120.574 199.072 120.623 198.853 120.678C198.378 120.782 197.896 120.886 197.404 120.989C197.163 121.039 196.923 121.082 196.677 121.132C196.431 121.175 196.185 121.225 195.938 121.268C195.643 121.323 195.348 121.372 195.052 121.422C192.575 121.837 189.917 122.138 187.073 122.33C186.778 122.351 186.477 122.368 186.171 122.384C185.875 122.406 185.575 122.417 185.274 122.433C184.863 122.455 184.448 122.472 184.027 122.488C183.901 122.494 183.775 122.499 183.644 122.499C183.474 122.505 183.299 122.51 183.124 122.516C182.714 122.526 182.298 122.537 181.877 122.548C181.407 122.554 180.937 122.559 180.461 122.559C180.236 122.565 180.012 122.565 179.788 122.565H43.6842C43.0937 122.565 42.5085 122.549 41.934 122.516C41.3544 122.483 40.7911 122.428 40.2332 122.363C40.0253 122.341 39.8174 122.314 39.6095 122.281C39.2595 122.231 38.9094 122.177 38.565 122.111C38.3189 122.067 38.0781 122.024 37.8377 121.969C37.8048 121.963 37.7722 121.958 37.7447 121.947C37.564 121.914 37.3837 121.87 37.2086 121.827C37.0665 121.799 36.9243 121.761 36.7875 121.723C36.7055 121.706 36.6235 121.685 36.5414 121.663C36.3498 121.613 36.1638 121.559 35.9782 121.504C35.6554 121.411 35.3328 121.313 35.021 121.209C34.7968 121.132 34.5726 121.056 34.3538 120.973C34.02 120.859 33.6975 120.727 33.3747 120.596C33.1615 120.509 32.9536 120.421 32.7457 120.328C32.494 120.219 32.2482 120.104 32.0021 119.984C31.7779 119.874 31.5591 119.765 31.3405 119.656C30.5912 119.262 29.8636 118.841 29.1582 118.381C28.934 118.234 28.7042 118.086 28.48 117.927C27.5229 117.265 26.6039 116.538 25.7235 115.751C25.5813 115.625 25.4336 115.494 25.2914 115.357C25.0889 115.171 24.8922 114.979 24.6953 114.788C24.4927 114.591 24.3014 114.394 24.1101 114.197C23.9132 114 23.7216 113.798 23.5359 113.59C23.4047 113.448 23.2735 113.306 23.1529 113.163C23.0217 113.021 22.8903 112.874 22.77 112.726C22.6495 112.595 22.5349 112.458 22.4253 112.321C22.2447 112.108 22.0643 111.889 21.8949 111.67C21.884 111.665 21.884 111.659 21.884 111.654C21.7309 111.463 21.5777 111.277 21.4356 111.08C21.0473 110.577 20.6754 110.063 20.3144 109.532H20.309C20.1174 109.253 19.9261 108.969 19.7402 108.685C19.5924 108.455 19.4449 108.225 19.3025 107.995C18.701 107.044 18.1321 106.054 17.5904 105.031C16.256 102.51 15.0966 99.8028 14.1012 96.9589C13.9973 96.6746 13.899 96.39 13.806 96.1004C13.6967 95.7832 13.5927 95.466 13.4888 95.1432C13.4068 94.8862 13.3247 94.6238 13.2427 94.3558C13.1497 94.0659 13.0623 93.7706 12.9747 93.4753C12.8873 93.1801 12.7997 92.8845 12.7176 92.5893C12.6356 92.2884 12.5482 91.9931 12.4715 91.6922C12.2799 90.9978 12.0996 90.2977 11.9302 89.592C11.881 89.3841 11.8319 89.1818 11.7824 88.9739C11.6346 88.3505 11.4981 87.7269 11.3613 87.0981C11.2354 86.4967 11.1099 85.8896 10.9947 85.2825C10.7977 84.2599 10.6174 83.226 10.4533 82.1925H216.348C216.599 83.2535 216.835 84.2818 217.059 85.2825C217.086 85.4027 217.114 85.5285 217.141 85.6488C217.223 86.0207 217.305 86.3871 217.382 86.7481C217.409 86.8739 217.437 86.9942 217.464 87.1144C217.584 87.6558 217.699 88.1865 217.809 88.7059C218.038 89.7943 218.252 90.8278 218.448 91.8069C218.514 92.1131 218.574 92.4193 218.629 92.7202C218.64 92.7693 218.651 92.8241 218.662 92.8733C218.771 93.4146 218.87 93.9397 218.968 94.4375C219.017 94.7165 219.072 94.9845 219.121 95.2469C219.171 95.504 219.22 95.761 219.264 96.0071C219.357 96.5049 219.444 96.9752 219.526 97.4183C219.657 98.1346 219.756 98.8457 219.805 99.5401C219.805 99.5401 219.805 99.5455 219.805 99.5564C219.849 100.076 219.871 100.584 219.871 101.093Z" fill="#7EADDC"/>
<path d="M217.06 85.2816H10.9955C10.7985 84.259 10.6182 83.2252 10.4541 82.1916C10.3336 81.437 10.2243 80.6822 10.1204 79.9273H215.807C215.993 80.6928 216.174 81.4477 216.349 82.1916C216.6 83.2527 216.835 84.2809 217.06 85.2816Z" fill="#332C6F"/>
<path d="M195.949 120.47C195.949 120.738 195.944 121 195.938 121.268C195.643 121.323 195.347 121.372 195.052 121.421C192.575 121.837 189.917 122.138 187.073 122.329C186.777 122.351 186.477 122.367 186.17 122.384C185.875 122.406 185.574 122.417 185.273 122.433C184.863 122.455 184.447 122.471 184.026 122.488C183.9 122.494 183.775 122.499 183.643 122.499C183.474 122.505 183.299 122.51 183.124 122.515C182.714 122.526 182.298 122.537 181.877 122.548C181.407 122.554 180.936 122.559 180.46 122.559C180.236 122.565 180.012 122.565 179.787 122.565H139.404C139.355 121.876 139.328 121.175 139.328 120.47C139.328 104.839 151.999 92.162 167.636 92.162C174.953 92.162 181.626 94.9404 186.646 99.496C187.57 100.333 188.435 101.224 189.239 102.176C193.428 107.109 195.949 113.497 195.949 120.47Z" fill="#485DAA"/>
<path d="M187.16 120.47C187.16 121.099 187.133 121.717 187.073 122.329C186.444 128.969 182.5 134.635 176.906 137.659C176.687 137.779 176.463 137.894 176.238 138.004C173.646 139.283 170.726 140 167.636 140C157.556 140 149.265 132.365 148.22 122.565C148.149 121.876 148.111 121.175 148.111 120.47C148.111 109.691 156.851 100.945 167.636 100.945C175.03 100.945 181.462 105.058 184.77 111.112C185.367 112.195 185.859 113.344 186.242 114.541C186.838 116.412 187.16 118.402 187.16 120.47Z" fill="#332C6F"/>
<path d="M169.726 133.299C176.81 132.149 181.621 125.475 180.471 118.39C179.322 111.306 172.647 106.495 165.563 107.645C158.479 108.795 153.668 115.47 154.818 122.554C155.968 129.638 162.642 134.449 169.726 133.299Z" fill="#4E487F"/>
<path d="M167.637 126.771C171.116 126.771 173.936 123.951 173.936 120.472C173.936 116.993 171.116 114.173 167.637 114.173C164.158 114.173 161.338 116.993 161.338 120.472C161.338 123.951 164.158 126.771 167.637 126.771Z" fill="#332C6F"/>
<path d="M167.637 123.133C169.107 123.133 170.298 121.942 170.298 120.472C170.298 119.002 169.107 117.81 167.637 117.81C166.167 117.81 164.975 119.002 164.975 120.472C164.975 121.942 166.167 123.133 167.637 123.133Z" fill="#E7EAEA"/>
<path d="M123.919 37.5882V122.564H74.7181V37.5882C74.7181 32.2244 79.1799 27.8792 84.6879 27.8792H113.944C119.452 27.8789 123.919 32.2241 123.919 37.5882Z" fill="#332C6F"/>
<path d="M122.598 37.7796V122.564H76.0396V37.7742C76.0396 33.0604 79.8609 29.2392 84.5747 29.2392H114.057C118.774 29.2392 122.598 33.0627 122.598 37.7796Z" fill="#D1E0F3"/>
<path d="M117.993 38.2959V61.8787C117.993 64.143 116.161 65.975 113.902 65.975H84.4946C83.8875 65.975 83.3133 65.8438 82.7939 65.603C81.3827 64.9577 80.4037 63.5356 80.4037 61.8787V38.2959C80.4037 36.0372 82.2359 34.2052 84.4946 34.2052H113.902C114.974 34.2052 115.947 34.621 116.675 35.2936C117.484 36.0372 117.993 37.109 117.993 38.2959Z" fill="#332C6F"/>
<path opacity="0.5" d="M116.675 35.2933L94.2077 65.975H84.4947C83.8876 65.975 83.3133 65.8438 82.7939 65.603L105.786 34.205H113.902C114.974 34.205 115.947 34.6207 116.675 35.2933Z" fill="#72CDE0"/>
<path opacity="0.5" d="M96.5869 34.205L80.4039 56.3055V49.3982L91.5334 34.205H96.5869Z" fill="#72CDE0"/>
<path d="M116.24 90.3294C115.271 90.3294 114.486 89.5445 114.486 88.5761V82.9813C114.486 82.0129 115.271 81.228 116.24 81.228C117.208 81.228 117.993 82.0129 117.993 82.9813V88.5761C117.993 89.5445 117.208 90.3294 116.24 90.3294Z" fill="#332C6F"/>
<path d="M63.9036 32.8267V52.5865C63.9036 54.6429 62.241 56.3055 60.1899 56.3055H25.4395C23.383 56.3055 21.7205 54.6429 21.7205 52.5865V37.3607C21.7205 32.8051 25.4176 29.1133 29.9735 29.1133H60.1902C62.241 29.1133 63.9036 30.7759 63.9036 32.8267Z" fill="#332C6F"/>
<path opacity="0.5" d="M57.5213 29.1133L37.6084 56.3055H25.9207L45.8338 29.1133H57.5213Z" fill="#72CDE0"/>
<path opacity="0.5" d="M63.9036 36.1903V45.3072L55.8478 56.3055H49.1753L63.9036 36.1903Z" fill="#72CDE0"/>
<path d="M223.376 112.047C222.545 118.107 214.26 120.47 200.177 120.47C200.357 120.388 200.532 120.306 200.707 120.218L200.712 120.212C217.3 112.315 219.707 100.07 219.805 99.5556C219.805 99.5446 219.805 99.5393 219.805 99.5393C219.805 99.5393 224.202 105.982 223.376 112.047Z" fill="#332C6F"/>
<path d="M67.5956 97.7764C67.5956 99.5269 66.1766 100.946 64.4261 100.946C62.6756 100.946 61.2566 99.5269 61.2566 97.7764C61.2566 96.0259 62.6756 94.6069 64.4261 94.6069C66.1766 94.6069 67.5956 96.0259 67.5956 97.7764Z" fill="white"/>
<path d="M190.929 56.3055H137.047C135.007 56.3055 133.35 54.6539 133.35 52.6137V32.8048C133.35 30.7649 135.007 29.113 137.047 29.113H175.085C177.414 29.113 179.657 29.753 181.587 30.9124C183.551 32.0828 185.192 33.7835 186.297 35.8838L186.778 36.7915L194.194 50.8908C195.49 53.3523 193.707 56.3055 190.929 56.3055Z" fill="#332C6F"/>
<path opacity="0.5" d="M171.606 29.1133L151.694 56.3055H137.676L157.589 29.1133H171.606Z" fill="#72CDE0"/>
<path opacity="0.5" d="M186.778 36.7918L172.487 56.3055H162.987L181.587 30.9124C183.551 32.0828 185.192 33.7835 186.297 35.8838L186.778 36.7918Z" fill="#72CDE0"/>
<path d="M159.033 10.4427H21.1734C22.9891 8.02525 25.0292 6.15478 27.2877 4.94086C43.8864 -3.96279 110.341 0.237465 152.771 9.0647C154.92 9.51307 157.015 9.97241 159.033 10.4427Z" fill="#332C6F"/>
<path d="M109.409 122.564H88.4954V126.111H109.409V122.564Z" fill="#392566"/>
</svg>
