<svg width="820" height="254" viewBox="0 0 820 254" fill="none" xmlns="http://www.w3.org/2000/svg">
<path d="M59.889 104.313H40.817L50.353 78.69L59.889 53.067L69.425 78.69L78.96 104.313H59.889Z" fill="#302794"/>
<path d="M59.889 135.984H40.817L50.353 110.361L59.889 84.738L69.425 110.361L78.96 135.984H59.889Z" fill="#302794"/>
<path d="M59.889 168.315H40.817L50.353 142.692L59.889 117.069L69.425 142.692L78.96 168.315H59.889Z" fill="#302794"/>
<path d="M113.89 133.832H89.947L101.918 101.663L113.89 69.494L125.862 101.663L137.834 133.832H113.89Z" fill="#302794"/>
<path d="M113.89 173.594H89.947L101.918 141.425L113.89 109.256L125.862 141.425L137.834 173.594H113.89Z" fill="#302794"/>
<path d="M113.89 214.185H89.947L101.918 182.016L113.89 149.847L125.862 182.016L137.834 214.185H113.89Z" fill="#302794"/>
<path d="M756.872 137.034C734.039 155.841 715.329 181.969 692.903 201.57C681.845 211.234 669.791 219.827 656.957 224.381C646.939 227.936 636.516 229.332 626.186 229.914C605.859 231.06 585.112 228.327 565.023 233.646C555.435 236.184 546.189 240.837 538.166 248.399C536.319 250.14 534.562 252.013 532.887 254H820V108.034C797.643 111.38 776.406 120.944 756.872 137.034Z" fill="#302794"/>
<path d="M218.645 233.371C207.705 225.406 195.577 220.927 182.806 218.712C162.79 215.241 141.963 216.61 122.542 209.301C107.518 203.647 93.942 194.095 80.667 184.455C67.39 174.813 54.106 164.647 39.298 158.295C26.508 152.808 13.195 151.143 -0.000976562 153.807V254H242.877C234.846 247.049 227.151 239.563 218.645 233.371Z" fill="#1C1A6B"/>
<path d="M272.53 233.371C258.893 225.406 243.777 220.927 227.858 218.712C202.909 215.241 176.949 216.61 152.741 209.301C134.014 203.647 117.092 194.095 100.546 184.455C83.997 174.813 67.439 164.647 48.981 158.295C33.039 152.808 16.446 151.143 -0.00299072 153.807V254H302.732C292.723 247.049 283.132 239.563 272.53 233.371Z" fill="#302794"/>
<path d="M155.53 249.949C145.309 243.294 134.181 238.112 122.169 235.708C114.675 234.208 106.614 233.463 98.986 234.21C95.281 234.573 91.362 235.313 87.834 236.549C85.185 237.476 83.028 238.627 80.168 238.805C79.514 238.846 79.264 238.252 79.399 237.757C62.629 208.75 33.894 181.24 -0.000976562 181.021V254H161.453C159.504 252.616 157.537 251.255 155.53 249.949Z" fill="#1C1A6B"/>
<path d="M756.865 185.475C741.474 196.97 729.166 212.519 712.698 222.553C693.221 234.42 670.125 232.975 648.247 231.433C630.918 230.211 612.696 230.633 596.666 238.122C588.421 241.974 581.436 247.509 575.386 254H820V165.953C797.477 158.849 774.416 172.367 756.865 185.475Z" fill="#1C1A6B"/>
<path d="M718.109 129.633H702.432L710.271 108.571L718.109 87.51L725.947 108.571L733.785 129.633H718.109Z" fill="#302794"/>
<path d="M718.109 155.666H702.432L710.271 134.604L718.109 113.543L725.947 134.604L733.785 155.666H718.109Z" fill="#302794"/>
<path d="M718.109 182.241H702.432L710.271 161.18L718.109 140.118L725.947 161.18L733.785 182.241H718.109Z" fill="#302794"/>
<path d="M765.626 78.004H746.606L756.116 52.45L765.626 26.895L775.137 52.45L784.647 78.004H765.626Z" fill="#302794"/>
<path d="M765.626 109.59H746.606L756.116 84.036L765.626 58.481L775.137 84.036L784.647 109.59H765.626Z" fill="#302794"/>
<path d="M765.626 141.835H746.606L756.116 116.28L765.626 90.726L775.137 116.28L784.647 141.835H765.626Z" fill="#302794"/>
<path d="M819.998 239.969H0.00201416V253.997H819.998V239.969Z" fill="#1C1A6B"/>
<path d="M9.70901 74.571H-15.788L-3.03999 40.314L9.70901 6.05698L22.458 40.314L35.207 74.571H9.70901Z" fill="#302794"/>
<path d="M9.70901 116.914H-15.788L-3.03999 82.657L9.70901 48.4L22.458 82.657L35.207 116.914H9.70901Z" fill="#302794"/>
<path d="M9.70901 160.14H-15.788L-3.03999 125.882L9.70901 91.625L22.458 125.882L35.207 160.14H9.70901Z" fill="#302794"/>
<path d="M813.31 51.901H794.289L803.799 26.347L813.31 0.792038L822.82 26.347L832.33 51.901H813.31Z" fill="#302794"/>
<path d="M813.31 83.488H794.289L803.799 57.933L813.31 32.379L822.82 57.933L832.33 83.488H813.31Z" fill="#302794"/>
<path d="M813.31 115.732H794.289L803.799 90.178L813.31 64.623L822.82 90.178L832.33 115.732H813.31Z" fill="#302794"/>
<path d="M359.308 223.472H346.213V229.111H359.308V223.472Z" fill="#392566"/>
<path d="M356.185 227.302H349.337V232.941H356.185V227.302Z" fill="#392566"/>
<path d="M354.975 231.855H350.546V237.494H354.975V231.855Z" fill="#392566"/>
<path d="M363.905 242.055H341.616C341.616 239.536 343.658 237.494 346.177 237.494H359.344C361.863 237.494 363.905 239.536 363.905 242.055Z" fill="#392566"/>
<path d="M519.871 204.093C519.871 204.29 519.866 204.492 519.86 204.689C519.855 204.853 519.849 205.012 519.838 205.176C519.806 205.75 519.745 206.313 519.647 206.871C519.63 206.992 519.609 207.117 519.587 207.238C519.559 207.391 519.527 207.544 519.494 207.697C519.434 207.987 519.362 208.277 519.28 208.555C519.269 208.61 519.253 208.659 519.237 208.709C519.193 208.878 519.138 209.042 519.089 209.206C518.903 209.786 518.679 210.355 518.427 210.907C518.356 211.049 518.29 211.197 518.219 211.339C518.203 211.372 518.186 211.405 518.17 211.438C518.093 211.591 518.017 211.738 517.935 211.886C517.842 212.05 517.749 212.22 517.65 212.384C517.454 212.718 517.246 213.045 517.016 213.368C516.907 213.527 516.792 213.691 516.671 213.849C516.556 214.003 516.431 214.161 516.305 214.32C516.185 214.473 516.053 214.626 515.922 214.779C515.917 214.79 515.906 214.801 515.9 214.806C515.774 214.954 515.649 215.096 515.518 215.233C515.25 215.534 514.954 215.829 514.653 216.119C514.517 216.25 514.374 216.381 514.227 216.513C514.216 216.524 514.2 216.535 514.189 216.546C514.035 216.688 513.872 216.83 513.708 216.967C513.549 217.103 513.379 217.24 513.21 217.377C513.035 217.514 512.865 217.65 512.685 217.782C512.51 217.918 512.329 218.05 512.143 218.176C511.963 218.307 511.777 218.433 511.585 218.558C511.082 218.892 510.563 219.215 510.016 219.527C509.857 219.62 509.693 219.713 509.529 219.8C509.343 219.904 509.157 220.002 508.966 220.106C508.654 220.265 508.331 220.423 508.009 220.582C507.834 220.664 507.653 220.746 507.478 220.828C507.298 220.91 507.117 220.992 506.931 221.074C506.565 221.233 506.193 221.386 505.81 221.539C505.624 221.616 505.427 221.692 505.236 221.763C504.848 221.916 504.449 222.059 504.044 222.201C503.639 222.338 503.229 222.474 502.808 222.606C502.594 222.671 502.381 222.742 502.162 222.808C501.741 222.928 501.309 223.054 500.866 223.174C500.866 223.174 500.86 223.174 500.855 223.18C500.833 223.185 500.811 223.185 500.784 223.196C500.756 223.207 500.735 223.212 500.707 223.218C500.313 223.322 499.914 223.42 499.51 223.519C499.296 223.574 499.072 223.623 498.853 223.678C498.378 223.782 497.896 223.886 497.404 223.989C497.163 224.039 496.923 224.082 496.677 224.132C496.431 224.175 496.185 224.225 495.938 224.268C495.643 224.323 495.348 224.372 495.052 224.422C492.575 224.837 489.917 225.138 487.073 225.33C486.778 225.351 486.477 225.368 486.171 225.384C485.875 225.406 485.575 225.417 485.274 225.433C484.863 225.455 484.448 225.472 484.027 225.488C483.901 225.494 483.775 225.499 483.644 225.505C483.474 225.51 483.299 225.516 483.124 225.516C482.714 225.526 482.298 225.537 481.877 225.548C481.407 225.554 480.937 225.559 480.461 225.559C480.236 225.565 480.012 225.565 479.788 225.565H343.684C343.094 225.565 342.508 225.549 341.934 225.516C341.354 225.483 340.791 225.428 340.233 225.363C340.025 225.341 339.817 225.314 339.61 225.281C339.259 225.231 338.909 225.177 338.565 225.111C338.319 225.067 338.078 225.024 337.838 224.969C337.805 224.963 337.772 224.958 337.745 224.947C337.564 224.914 337.384 224.87 337.209 224.827C337.066 224.799 336.924 224.761 336.788 224.723C336.705 224.706 336.623 224.685 336.541 224.663C336.35 224.613 336.164 224.559 335.978 224.504C335.655 224.411 335.333 224.313 335.021 224.209C334.797 224.132 334.573 224.055 334.354 223.973C334.02 223.859 333.698 223.727 333.375 223.596C333.162 223.509 332.954 223.421 332.746 223.328C332.494 223.219 332.248 223.104 332.002 222.984C331.778 222.874 331.559 222.765 331.34 222.656C330.591 222.262 329.864 221.841 329.158 221.381C328.934 221.233 328.704 221.086 328.48 220.927C327.523 220.265 326.604 219.538 325.723 218.751C325.581 218.625 325.434 218.494 325.291 218.357C325.089 218.171 324.892 217.979 324.695 217.788C324.493 217.591 324.301 217.394 324.11 217.197C323.913 217 323.722 216.798 323.536 216.59C323.405 216.448 323.273 216.306 323.153 216.163C323.022 216.021 322.89 215.874 322.77 215.726C322.65 215.595 322.535 215.458 322.425 215.321C322.245 215.108 322.064 214.889 321.895 214.67C321.884 214.665 321.884 214.659 321.884 214.654C321.731 214.463 321.578 214.277 321.436 214.08C321.047 213.577 320.675 213.063 320.314 212.532H320.309C320.117 212.253 319.926 211.969 319.74 211.685C319.592 211.455 319.445 211.225 319.302 210.995C318.701 210.044 318.132 209.054 317.59 208.031C316.256 205.51 315.097 202.803 314.101 199.959C313.997 199.675 313.899 199.39 313.806 199.1C313.697 198.783 313.593 198.466 313.489 198.143C313.407 197.886 313.325 197.624 313.243 197.356C313.15 197.066 313.062 196.771 312.975 196.475C312.887 196.18 312.8 195.885 312.718 195.589C312.636 195.288 312.548 194.993 312.472 194.692C312.28 193.998 312.1 193.298 311.93 192.592C311.881 192.384 311.832 192.182 311.782 191.974C311.635 191.351 311.498 190.727 311.361 190.098C311.235 189.497 311.11 188.89 310.995 188.282C310.798 187.26 310.617 186.226 310.453 185.192C310.333 184.438 310.224 183.683 310.12 182.928C309.425 177.842 309.102 172.684 309.102 167.697C309.102 145.984 312.985 124.272 321.173 113.443C322.988 111.026 325.028 109.155 327.287 107.941C343.886 99.0378 410.341 103.238 452.77 112.065C454.919 112.514 457.014 112.973 459.032 113.444C462.27 114.198 465.327 114.98 468.154 115.784C476.041 118.027 482.193 120.449 485.748 122.954C501.439 133.996 510.841 162.622 515.806 182.928C515.992 183.694 516.173 184.449 516.348 185.193C516.599 186.254 516.834 187.282 517.059 188.283C517.086 188.403 517.114 188.529 517.141 188.649C517.223 189.021 517.305 189.387 517.382 189.748C517.409 189.874 517.436 189.994 517.464 190.115C517.584 190.656 517.699 191.187 517.808 191.706C518.038 192.795 518.251 193.828 518.448 194.807C518.514 195.113 518.574 195.42 518.629 195.72C518.64 195.77 518.651 195.824 518.662 195.874C518.771 196.415 518.869 196.94 518.968 197.438C519.017 197.717 519.072 197.985 519.121 198.247C519.17 198.504 519.219 198.761 519.263 199.007C519.356 199.505 519.444 199.975 519.526 200.419C519.657 201.135 519.755 201.846 519.805 202.54C519.805 202.54 519.805 202.546 519.805 202.557C519.849 203.076 519.871 203.584 519.871 204.093Z" fill="#D1E0F3"/>
<path d="M304.049 220.81C303.005 220.81 302.16 219.964 302.16 218.92V205.377H305.939V218.92C305.939 219.964 305.093 220.81 304.049 220.81Z" fill="#392566"/>
<path d="M328.074 208.033H300V212.532H328.074V208.033Z" fill="#E7EAEA"/>
<path d="M304.859 210.282C304.859 209.835 304.497 209.472 304.049 209.472C303.602 209.472 303.239 209.835 303.239 210.282C303.239 210.729 303.602 211.092 304.049 211.092C304.496 211.092 304.859 210.729 304.859 210.282Z" fill="#392566"/>
<path d="M519.871 204.093C519.871 204.29 519.866 204.492 519.86 204.689C519.855 204.853 519.849 205.012 519.838 205.176C519.806 205.75 519.745 206.313 519.647 206.871C519.63 206.992 519.609 207.117 519.587 207.238C519.559 207.391 519.527 207.544 519.494 207.697C519.434 207.987 519.362 208.277 519.28 208.555C519.269 208.61 519.253 208.659 519.237 208.709C519.193 208.878 519.138 209.042 519.089 209.206C518.903 209.786 518.679 210.355 518.427 210.907C518.356 211.049 518.29 211.197 518.219 211.339C518.203 211.372 518.186 211.405 518.17 211.438C518.094 211.591 518.017 211.738 517.935 211.886C517.842 212.05 517.749 212.22 517.65 212.384C517.454 212.718 517.246 213.045 517.016 213.368C516.907 213.527 516.792 213.691 516.671 213.849C516.557 214.003 516.431 214.161 516.305 214.32C516.185 214.473 516.053 214.626 515.922 214.779C515.917 214.79 515.906 214.801 515.9 214.806C515.774 214.954 515.649 215.096 515.518 215.233C515.25 215.534 514.954 215.829 514.653 216.119C514.517 216.25 514.374 216.381 514.227 216.513C514.216 216.524 514.2 216.535 514.189 216.546C514.035 216.688 513.872 216.83 513.708 216.967C513.549 217.103 513.379 217.24 513.21 217.377C513.035 217.514 512.865 217.65 512.685 217.782C512.51 217.918 512.329 218.05 512.143 218.176C511.963 218.307 511.777 218.433 511.585 218.558C511.082 218.892 510.563 219.215 510.016 219.527C509.857 219.62 509.693 219.713 509.529 219.8C509.343 219.904 509.157 220.002 508.966 220.106C508.654 220.265 508.331 220.423 508.009 220.582C507.834 220.664 507.653 220.746 507.478 220.828C507.298 220.91 507.117 220.992 506.931 221.074C506.565 221.233 506.193 221.386 505.81 221.539C505.624 221.616 505.427 221.692 505.236 221.763C504.848 221.916 504.449 222.059 504.044 222.201C503.639 222.338 503.229 222.474 502.808 222.606C502.594 222.671 502.381 222.742 502.162 222.808C501.741 222.928 501.309 223.054 500.866 223.174C500.866 223.174 500.86 223.174 500.855 223.18C500.833 223.185 500.811 223.185 500.784 223.196C500.762 223.201 500.735 223.207 500.713 223.212L500.707 223.218C500.313 223.322 499.914 223.42 499.51 223.519C499.296 223.574 499.072 223.623 498.853 223.678C498.378 223.782 497.896 223.886 497.404 223.989C497.163 224.039 496.923 224.082 496.677 224.132C496.431 224.175 496.185 224.225 495.938 224.268C495.643 224.323 495.348 224.372 495.052 224.422C492.575 224.837 489.917 225.138 487.073 225.33C486.778 225.351 486.477 225.368 486.171 225.384C485.875 225.406 485.575 225.417 485.274 225.433C484.863 225.455 484.448 225.472 484.027 225.488C483.901 225.494 483.775 225.499 483.644 225.499C483.474 225.505 483.299 225.51 483.124 225.516C482.714 225.526 482.298 225.537 481.877 225.548C481.407 225.554 480.937 225.559 480.461 225.559C480.236 225.565 480.012 225.565 479.788 225.565H343.684C343.094 225.565 342.508 225.549 341.934 225.516C341.354 225.483 340.791 225.428 340.233 225.363C340.025 225.341 339.817 225.314 339.61 225.281C339.259 225.231 338.909 225.177 338.565 225.111C338.319 225.067 338.078 225.024 337.838 224.969C337.805 224.963 337.772 224.958 337.745 224.947C337.564 224.914 337.384 224.87 337.209 224.827C337.066 224.799 336.924 224.761 336.788 224.723C336.705 224.706 336.623 224.685 336.541 224.663C336.35 224.613 336.164 224.559 335.978 224.504C335.655 224.411 335.333 224.313 335.021 224.209C334.797 224.132 334.573 224.055 334.354 223.973C334.02 223.859 333.698 223.727 333.375 223.596C333.162 223.509 332.954 223.421 332.746 223.328C332.494 223.219 332.248 223.104 332.002 222.984C331.778 222.874 331.559 222.765 331.34 222.656C330.591 222.262 329.864 221.841 329.158 221.381C328.934 221.233 328.704 221.086 328.48 220.927C327.523 220.265 326.604 219.538 325.723 218.751C325.581 218.625 325.434 218.494 325.291 218.357C325.089 218.171 324.892 217.979 324.695 217.788C324.493 217.591 324.301 217.394 324.11 217.197C323.913 217 323.722 216.798 323.536 216.59C323.405 216.448 323.273 216.306 323.153 216.163C323.022 216.021 322.89 215.874 322.77 215.726C322.65 215.595 322.535 215.458 322.425 215.321C322.245 215.108 322.064 214.889 321.895 214.67C321.884 214.665 321.884 214.659 321.884 214.654C321.731 214.463 321.578 214.277 321.436 214.08C321.047 213.577 320.675 213.063 320.314 212.532H320.309C320.117 212.253 319.926 211.969 319.74 211.685C319.592 211.455 319.445 211.225 319.302 210.995C318.701 210.044 318.132 209.054 317.59 208.031C316.256 205.51 315.097 202.803 314.101 199.959C313.997 199.675 313.899 199.39 313.806 199.1C313.697 198.783 313.593 198.466 313.489 198.143C313.407 197.886 313.325 197.624 313.243 197.356C313.15 197.066 313.062 196.771 312.975 196.475C312.887 196.18 312.8 195.885 312.718 195.589C312.636 195.288 312.548 194.993 312.472 194.692C312.28 193.998 312.1 193.298 311.93 192.592C311.881 192.384 311.832 192.182 311.782 191.974C311.635 191.351 311.498 190.727 311.361 190.098C311.235 189.497 311.11 188.89 310.995 188.282C310.798 187.26 310.617 186.226 310.453 185.192H516.348C516.599 186.254 516.835 187.282 517.059 188.282C517.086 188.403 517.114 188.529 517.141 188.649C517.223 189.021 517.305 189.387 517.382 189.748C517.409 189.874 517.437 189.994 517.464 190.114C517.584 190.656 517.699 191.186 517.809 191.706C518.038 192.794 518.252 193.828 518.448 194.807C518.514 195.113 518.574 195.419 518.629 195.72C518.64 195.769 518.651 195.824 518.662 195.873C518.771 196.415 518.87 196.94 518.968 197.438C519.017 197.717 519.072 197.985 519.121 198.247C519.171 198.504 519.22 198.761 519.264 199.007C519.357 199.505 519.444 199.975 519.526 200.418C519.657 201.135 519.756 201.846 519.805 202.54C519.805 202.54 519.805 202.545 519.805 202.556C519.849 203.076 519.871 203.584 519.871 204.093Z" fill="#7EADDC"/>
<path d="M517.06 188.282H310.995C310.799 187.259 310.618 186.225 310.454 185.192C310.334 184.437 310.224 183.682 310.12 182.927H515.807C515.993 183.693 516.174 184.448 516.349 185.192C516.6 186.253 516.835 187.281 517.06 188.282Z" fill="#332C6F"/>
<path d="M495.949 223.47C495.949 223.738 495.944 224 495.938 224.268C495.643 224.323 495.347 224.372 495.052 224.421C492.575 224.837 489.917 225.138 487.073 225.329C486.777 225.351 486.477 225.367 486.17 225.384C485.875 225.406 485.574 225.417 485.273 225.433C484.863 225.455 484.447 225.471 484.026 225.488C483.9 225.494 483.775 225.499 483.643 225.499C483.474 225.505 483.299 225.51 483.124 225.515C482.714 225.526 482.298 225.537 481.877 225.548C481.407 225.554 480.936 225.559 480.46 225.559C480.236 225.565 480.012 225.565 479.787 225.565H439.404C439.355 224.876 439.328 224.175 439.328 223.47C439.328 207.839 451.999 195.162 467.636 195.162C474.953 195.162 481.626 197.94 486.646 202.496C487.57 203.333 488.435 204.224 489.239 205.176C493.428 210.109 495.949 216.497 495.949 223.47Z" fill="#485DAA"/>
<path d="M487.16 223.47C487.16 224.099 487.133 224.717 487.073 225.329C486.444 231.969 482.5 237.635 476.906 240.659C476.687 240.779 476.463 240.894 476.238 241.004C473.646 242.283 470.726 243 467.636 243C457.556 243 449.265 235.365 448.22 225.565C448.149 224.876 448.111 224.175 448.111 223.47C448.111 212.691 456.851 203.945 467.636 203.945C475.03 203.945 481.462 208.058 484.77 214.112C485.367 215.195 485.859 216.344 486.242 217.541C486.838 219.412 487.16 221.402 487.16 223.47Z" fill="#332C6F"/>
<path d="M469.726 236.299C476.81 235.149 481.621 228.475 480.471 221.39C479.322 214.306 472.647 209.495 465.563 210.645C458.479 211.795 453.668 218.47 454.818 225.554C455.968 232.638 462.642 237.449 469.726 236.299Z" fill="#4E487F"/>
<path d="M467.637 229.771C471.116 229.771 473.936 226.951 473.936 223.472C473.936 219.993 471.116 217.173 467.637 217.173C464.158 217.173 461.338 219.993 461.338 223.472C461.338 226.951 464.158 229.771 467.637 229.771Z" fill="#332C6F"/>
<path d="M467.637 226.133C469.107 226.133 470.298 224.942 470.298 223.472C470.298 222.002 469.107 220.81 467.637 220.81C466.167 220.81 464.975 222.002 464.975 223.472C464.975 224.942 466.167 226.133 467.637 226.133Z" fill="#E7EAEA"/>
<path d="M423.919 140.588V225.564H374.718V140.588C374.718 135.224 379.18 130.879 384.688 130.879H413.944C419.452 130.879 423.919 135.224 423.919 140.588Z" fill="#332C6F"/>
<path d="M422.598 140.78V225.564H376.04V140.774C376.04 136.06 379.861 132.239 384.575 132.239H414.057C418.774 132.239 422.598 136.063 422.598 140.78Z" fill="#D1E0F3"/>
<path d="M417.993 141.296V164.879C417.993 167.143 416.161 168.975 413.902 168.975H384.495C383.888 168.975 383.313 168.844 382.794 168.603C381.383 167.958 380.404 166.536 380.404 164.879V141.296C380.404 139.037 382.236 137.205 384.495 137.205H413.902C414.974 137.205 415.947 137.621 416.675 138.294C417.484 139.037 417.993 140.109 417.993 141.296Z" fill="#332C6F"/>
<path opacity="0.5" d="M416.675 138.293L394.208 168.975H384.495C383.888 168.975 383.313 168.844 382.794 168.603L405.786 137.205H413.902C414.974 137.205 415.947 137.621 416.675 138.293Z" fill="#72CDE0"/>
<path opacity="0.5" d="M396.587 137.205L380.404 159.305V152.398L391.533 137.205H396.587Z" fill="#72CDE0"/>
<path d="M416.24 193.329C415.271 193.329 414.486 192.545 414.486 191.576V185.981C414.486 185.013 415.271 184.228 416.24 184.228C417.208 184.228 417.993 185.013 417.993 185.981V191.576C417.993 192.545 417.208 193.329 416.24 193.329Z" fill="#332C6F"/>
<path d="M363.904 135.827V155.586C363.904 157.643 362.241 159.305 360.19 159.305H325.439C323.383 159.305 321.72 157.643 321.72 155.586V140.361C321.72 135.805 325.418 132.113 329.973 132.113H360.19C362.241 132.113 363.904 133.776 363.904 135.827Z" fill="#332C6F"/>
<path opacity="0.5" d="M357.521 132.113L337.608 159.305H325.921L345.834 132.113H357.521Z" fill="#72CDE0"/>
<path opacity="0.5" d="M363.904 139.19V148.307L355.848 159.305H349.175L363.904 139.19Z" fill="#72CDE0"/>
<path d="M523.376 215.047C522.545 221.107 514.26 223.47 500.177 223.47C500.357 223.388 500.532 223.306 500.707 223.218L500.712 223.212C517.3 215.315 519.707 203.07 519.805 202.556C519.805 202.545 519.805 202.539 519.805 202.539C519.805 202.539 524.202 208.982 523.376 215.047Z" fill="#332C6F"/>
<path d="M367.596 200.776C367.596 202.527 366.177 203.946 364.426 203.946C362.676 203.946 361.257 202.527 361.257 200.776C361.257 199.026 362.676 197.607 364.426 197.607C366.177 197.607 367.596 199.026 367.596 200.776Z" fill="white"/>
<path d="M490.929 159.305H437.047C435.007 159.305 433.35 157.654 433.35 155.614V135.805C433.35 133.765 435.007 132.113 437.047 132.113H475.085C477.414 132.113 479.657 132.753 481.587 133.912C483.551 135.083 485.192 136.784 486.296 138.884L486.778 139.792L494.194 153.891C495.49 156.352 493.707 159.305 490.929 159.305Z" fill="#332C6F"/>
<path opacity="0.5" d="M471.606 132.113L451.694 159.305H437.676L457.589 132.113H471.606Z" fill="#72CDE0"/>
<path opacity="0.5" d="M486.778 139.792L472.487 159.305H462.987L481.587 133.912C483.551 135.083 485.192 136.784 486.297 138.884L486.778 139.792Z" fill="#72CDE0"/>
<path d="M459.033 113.443H321.173C322.989 111.025 325.029 109.155 327.288 107.941C343.886 99.0372 410.341 103.237 452.771 112.065C454.92 112.513 457.015 112.972 459.033 113.443Z" fill="#332C6F"/>
<path d="M409.409 225.564H388.495V229.111H409.409V225.564Z" fill="#392566"/>
</svg>
