<svg width="812" height="210" viewBox="0 0 812 210" fill="none" xmlns="http://www.w3.org/2000/svg">
<path d="M0 157.532V209.676L437.442 203.487L285.7 86.03L265.468 93.608L221.21 65.823L142.81 137.812L93.494 112.553L11.3 164.335L11.777 149.022L0 157.532Z" fill="#485DAA"/>
<path d="M221.21 65.823L207.953 99.995L224.252 91.013L208.515 110.099L227.624 102.24L219.193 116.836L233.244 139.851L256.85 99.995L249.543 93.82L265.468 93.608L221.21 65.823Z" fill="#FFFEFE"/>
<path d="M811.017 142.698L802.907 141.745L777.798 93.769L764.698 94.859L736.314 57.787L671.905 130.84L646.796 102.491H638.062L614.045 51.244H606.403L576.928 0L567.103 20.717L557.278 21.807L535.444 61.059L513.61 66.511C513.61 66.511 444.389 179.906 434.913 189.162C454.7 185.119 751.302 188.797 811.017 189.581V142.698Z" fill="#485DAA"/>
<path d="M576.928 0L570.834 28.528L579.083 21.744L576.657 35.798L566.467 33.375L560.159 56.152L575.201 59.545L583.45 78.445L570.349 65.36L557.733 62.937L555.307 72.629L563.071 75.052L554.337 80.868L557.248 85.714L550.94 91.045L540.751 122.546L566.952 101.222L571.805 92.984L576.171 98.799L586.361 92.499L595.58 90.561L609.166 91.045L615.959 103.645L628.575 114.307L622.752 95.407L631.972 106.553L638.062 102.493L614.045 51.246L605.77 49.852L576.928 0Z" fill="#FFFEFE"/>
<path d="M736.314 57.788L732.412 70.691L736.778 70.206L743.086 81.353L733.867 75.052L728.045 91.045L735.323 92.499L738.234 100.738L730.471 95.407L723.678 93.468L725.618 100.253L733.867 106.068L724.163 104.13L716.885 118.184L723.192 124.969L716.399 124L720.281 129.815L710.092 128.846H701.358L711.547 133.208L716.399 139.508L706.21 150.654L741.631 126.423L737.264 114.792L747.939 123.515L770.744 122.061L762.495 106.068L777.537 121.092H784.33L770.259 99.768L764.698 94.86L736.314 57.788Z" fill="#FFFEFE"/>
</svg>
