<svg width="747" height="225" viewBox="0 0 747 225" fill="none" xmlns="http://www.w3.org/2000/svg">
<path d="M0.841003 46.633H267.311C263.024 38.366 251.117 34.487 241.796 34.59C232.475 34.693 223.356 37.428 214.043 37.82C197.782 38.504 182.099 32.043 167.624 24.613C153.148 17.183 139.04 8.58197 123.313 4.39997C107.586 0.217972 89.435 1.16397 76.838 11.456C66.936 19.547 60.53 33.067 48.072 35.976C40.138 37.828 32.003 34.688 23.916 33.699C15.829 32.71 3.028 38.794 0.841003 46.633Z" fill="#E0EAF7"/>
<path d="M663.547 39.896C641.43 39.896 618.555 41.553 596.591 39.687C599.17 34.898 604.579 32.131 610.08 32.126C616.114 32.121 622.183 34.146 628.095 32.939C642.02 30.095 646.687 12.213 658.37 4.12801C668.918 -3.17199 685.144 -0.293991 692.53 10.188C696.578 15.933 698.383 23.622 704.311 27.403C709.063 30.434 715.181 30.049 720.744 29.138C726.307 28.227 732.058 26.904 737.496 28.391C742.934 29.878 747.777 35.416 746.183 40.818H602.781" fill="#E0EAF7"/>
<path d="M265.288 25.668C264.23 23.581 269.861 21.919 274.226 21.844C278.591 21.769 282.728 22.746 287.041 23.085C301.655 24.234 314.052 18.19 324.145 12.86C334.239 7.52997 348.139 1.94297 362.207 4.20597C373.803 6.07097 379.387 12.393 388.171 16.562C393.815 19.241 401.016 21.075 408.625 22.002C415.163 22.799 422.028 22.94 428.679 22.416C435.991 21.839 443.116 20.465 450.517 20.571C457.919 20.676 466.058 22.94 466.767 26.57L265.288 25.668Z" fill="#E0EAF7"/>
<path d="M281.239 224.276H95.007V195.024C103.758 188.445 116.33 188.888 126.509 192.928C136.688 196.968 145.83 203.426 156.238 206.836C171.203 211.738 187.476 209.95 203.005 207.326C218.534 204.702 234.241 201.282 249.886 203.089C265.531 204.895 275.022 209.822 281.239 224.276Z" fill="#302794"/>
<path d="M417.309 213.073C426.622 201.121 442.433 195.182 457.26 192.012C472.088 188.843 487.371 188.684 502.451 187.098C517.531 185.513 532.903 182.31 545.489 173.863C561.599 163.05 581.124 160.308 600.299 163.31C619.474 166.313 637.479 176.281 650.189 190.932C659.321 188.283 673.693 188.163 682.245 192.315C690.797 196.467 697.715 203.873 701.271 212.682L417.309 213.073Z" fill="#302794"/>
<path d="M153.418 211.645C148.498 205.975 149.318 196.289 155.122 191.525C153.791 184.426 155.001 174.888 157.767 168.214C156.454 162.701 157.913 157.75 160.991 152.989V216.862C156.491 213.687 157.027 215.804 153.418 211.645Z" fill="#302794"/>
<path d="M168.444 211.645C173.364 205.975 172.544 196.289 166.74 191.525C168.072 184.426 166.861 174.888 164.095 168.214C165.408 162.701 163.949 157.75 160.871 152.989V216.862C165.372 213.687 164.836 215.804 168.444 211.645Z" fill="#302794"/>
<path d="M178.109 211.281C174.963 207.656 175.488 201.463 179.199 198.417C178.348 193.878 179.122 187.78 180.89 183.513C180.051 179.988 180.983 176.822 182.951 173.779V214.618C180.073 212.587 180.416 213.94 178.109 211.281Z" fill="#302794"/>
<path d="M187.716 211.281C190.862 207.656 190.337 201.463 186.627 198.417C187.478 193.878 186.704 187.78 184.936 183.513C185.775 179.988 184.842 176.822 182.874 173.779V214.618C185.751 212.587 185.409 213.94 187.716 211.281Z" fill="#302794"/>
<path d="M197.626 209.499C193.858 205.157 194.486 197.738 198.931 194.09C197.911 188.653 198.839 181.348 200.956 176.237C199.951 172.015 201.068 168.223 203.425 164.577V213.495C199.979 211.063 200.39 212.684 197.626 209.499Z" fill="#302794"/>
<path d="M209.134 209.499C212.902 205.157 212.274 197.738 207.829 194.09C208.849 188.653 207.921 181.348 205.804 176.237C206.809 172.015 205.692 168.223 203.335 164.577V213.495C206.781 211.063 206.37 212.684 209.134 209.499Z" fill="#302794"/>
<path d="M216.678 209.165C214.712 206.9 215.04 203.03 217.359 201.127C216.827 198.291 217.311 194.481 218.416 191.815C217.892 189.613 218.474 187.635 219.704 185.733V211.249C217.905 209.981 218.119 210.826 216.678 209.165Z" fill="#302794"/>
<path d="M222.68 209.165C224.645 206.9 224.318 203.03 221.999 201.127C222.531 198.291 222.047 194.481 220.942 191.815C221.466 189.613 220.884 187.635 219.654 185.733V211.249C221.453 209.981 221.239 210.826 222.68 209.165Z" fill="#302794"/>
<path d="M513.761 191.184C510.26 187.15 510.844 180.257 514.973 176.867C514.026 171.816 514.887 165.028 516.855 160.28C515.921 156.357 516.959 152.834 519.149 149.447V194.897C515.948 192.637 516.329 194.143 513.761 191.184Z" fill="#302794"/>
<path d="M524.454 191.184C527.955 187.15 527.371 180.257 523.242 176.867C524.19 171.816 523.328 165.028 521.36 160.28C522.294 156.357 521.256 152.834 519.066 149.447V194.897C522.267 192.637 521.886 194.143 524.454 191.184Z" fill="#302794"/>
<path d="M657.081 197.079C653.58 193.045 654.164 186.152 658.293 182.762C657.346 177.71 658.207 170.923 660.175 166.174C659.241 162.251 660.279 158.728 662.469 155.341V200.791C659.267 198.532 659.648 200.038 657.081 197.079Z" fill="#302794"/>
<path d="M667.773 197.079C671.274 193.045 670.69 186.152 666.561 182.762C667.508 177.71 666.647 170.923 664.679 166.174C665.613 162.251 664.575 158.728 662.385 155.341V200.791C665.586 198.532 665.205 200.038 667.773 197.079Z" fill="#302794"/>
<path d="M139.117 204.113C137.151 201.848 137.479 197.978 139.798 196.075C139.266 193.239 139.75 189.429 140.855 186.762C140.331 184.56 140.913 182.582 142.143 180.68V206.196C140.344 204.929 140.558 205.774 139.117 204.113Z" fill="#302794"/>
<path d="M145.119 204.113C147.084 201.848 146.757 197.978 144.438 196.075C144.97 193.239 144.486 189.429 143.381 186.762C143.905 184.56 143.323 182.582 142.093 180.68V206.196C143.892 204.929 143.678 205.774 145.119 204.113Z" fill="#302794"/>
<path d="M125.967 200.271C123.555 197.492 123.957 192.744 126.802 190.408C126.149 186.928 126.743 182.253 128.098 178.981C127.455 176.279 128.17 173.851 129.679 171.518V202.827C127.473 201.273 127.736 202.31 125.967 200.271Z" fill="#302794"/>
<path d="M133.333 200.271C135.745 197.492 135.343 192.744 132.498 190.408C133.151 186.928 132.557 182.253 131.202 178.981C131.845 176.279 131.13 173.851 129.621 171.518V202.827C131.827 201.273 131.564 202.31 133.333 200.271Z" fill="#302794"/>
<path d="M644.164 192.132C641.752 189.353 642.154 184.605 644.999 182.269C644.346 178.789 644.94 174.114 646.295 170.842C645.652 168.14 646.367 165.712 647.876 163.379V194.689C645.67 193.133 645.933 194.17 644.164 192.132Z" fill="#302794"/>
<path d="M651.529 192.132C653.941 189.353 653.539 184.605 650.694 182.269C651.347 178.789 650.753 174.114 649.397 170.842C650.041 168.14 649.325 165.712 647.817 163.379V194.689C650.023 193.133 649.76 194.17 651.529 192.132Z" fill="#302794"/>
<path d="M536.119 185.83C532.595 181.769 533.182 174.832 537.339 171.42C536.385 166.335 537.253 159.504 539.233 154.724C538.293 150.776 539.338 147.229 541.542 143.82V189.567C538.32 187.292 538.704 188.808 536.119 185.83Z" fill="#302794"/>
<path d="M546.881 185.83C550.405 181.769 549.817 174.832 545.661 171.42C546.614 166.335 545.747 159.504 543.767 154.724C544.707 150.776 543.662 147.229 541.458 143.82V189.567C544.68 187.292 544.296 188.808 546.881 185.83Z" fill="#302794"/>
</svg>
